HIERARCHY
ROOT Hips
{
	OFFSET	0.00	0.00	0.00
	CHANNELS 6 Xposition Yposition Zposition Zrotation Xrotation Yrotation
	JOINT LeftUpLeg
	{
		OFFSET	 0.126116	-0.014019	-0.065224
		CHANNELS 3 Zrotation Xrotation Yrotation
		JOINT LeftLeg
		{
			OFFSET	 0.000000	 0.000000	 0.569914
			CHANNELS 3 Zrotation Xrotation Yrotation
			JOINT LeftFoot
			{
				OFFSET	 0.000000	 0.000000	 0.544423
				CHANNELS 3 Zrotation Xrotation Yrotation
				JOINT LeftToeBase
				{
					OFFSET	 0.000000	 0.000000	 0.207117
					CHANNELS 3 Zrotation Xrotation Yrotation
					End Site
					{
						OFFSET	 0.000000	 0.000000	 0.207117
					}
				}
			}
		}
	}
	JOINT RightUpLeg
	{
		OFFSET	-0.124023	-0.008373	-0.065224
		CHANNELS 3 Zrotation Xrotation Yrotation
		JOINT RightLeg
		{
			OFFSET	 0.000000	 0.000000	 0.570047
			CHANNELS 3 Zrotation Xrotation Yrotation
			JOINT RightFoot
			{
				OFFSET	 0.000000	 0.000000	 0.544354
				CHANNELS 3 Zrotation Xrotation Yrotation
				JOINT RightToeBase
				{
					OFFSET	 0.000000	 0.000000	 0.207540
					CHANNELS 3 Zrotation Xrotation Yrotation
					End Site
					{
						OFFSET	 0.000000	 0.000000	 0.207540
					}
				}
			}
		}
	}
	JOINT Spine
	{
		OFFSET	 0.000184	-0.007763	 0.117403
		CHANNELS 3 Zrotation Xrotation Yrotation
		JOINT Spine1
		{
			OFFSET	 0.000000	 0.000000	 0.137269
			CHANNELS 3 Zrotation Xrotation Yrotation
			JOINT Spine2
			{
				OFFSET	 0.000000	 0.000000	 0.156879
				CHANNELS 3 Zrotation Xrotation Yrotation
				JOINT LeftShoulder
				{
					OFFSET	 0.080501	-0.002496	 0.160144
					CHANNELS 3 Zrotation Xrotation Yrotation
					JOINT LeftArm
					{
						OFFSET	 0.000000	 0.000000	 0.164363
						CHANNELS 3 Zrotation Xrotation Yrotation
						JOINT LeftForeArm
						{
							OFFSET	 0.000000	 0.000000	 0.364576
							CHANNELS 3 Zrotation Xrotation Yrotation
							JOINT LeftHand
							{
								OFFSET	 0.000000	 0.000000	 0.360812
								CHANNELS 3 Zrotation Xrotation Yrotation
								JOINT LeftHandIndex1
								{
									OFFSET	 0.000000	 0.000000	 0.086006
									CHANNELS 3 Zrotation Xrotation Yrotation
									JOINT LeftHandIndex2
									{
										OFFSET	 0.000000	 0.000000	 0.047236
										CHANNELS 3 Zrotation Xrotation Yrotation
										JOINT LeftHandIndex3
										{
											OFFSET	-0.004284	-0.000551	 0.038166
											CHANNELS 3 Zrotation Xrotation Yrotation
											End Site
											{
												OFFSET	-0.004284	-0.000551	 0.038166
											}
										}
									}
								}
							}
						}
					}
				}
				JOINT Neck
				{
					OFFSET	 0.000000	 0.000000	 0.176489
					CHANNELS 3 Zrotation Xrotation Yrotation
					JOINT Head
					{
						OFFSET	 0.000000	-0.001747	 0.077940
						CHANNELS 3 Zrotation Xrotation Yrotation
						End Site
						{
							OFFSET	 0.000000	-0.001747	 0.077940
						}
					}
				}
				JOINT RightShoulder
				{
					OFFSET	-0.080363	 0.000306	 0.159706
					CHANNELS 3 Zrotation Xrotation Yrotation
					JOINT RightArm
					{
						OFFSET	 0.000000	 0.000000	 0.164196
						CHANNELS 3 Zrotation Xrotation Yrotation
						JOINT RightForeArm
						{
							OFFSET	 0.000000	 0.000000	 0.365611
							CHANNELS 3 Zrotation Xrotation Yrotation
							JOINT RightHand
							{
								OFFSET	 0.000000	 0.000000	 0.360648
								CHANNELS 3 Zrotation Xrotation Yrotation
								JOINT RightHandIndex1
								{
									OFFSET	 0.000000	 0.000000	 0.069977
									CHANNELS 3 Zrotation Xrotation Yrotation
									JOINT RightHandIndex2
									{
										OFFSET	 0.000000	 0.000000	 0.052305
										CHANNELS 3 Zrotation Xrotation Yrotation
										JOINT RightHandIndex3
										{
											OFFSET	 0.009002	-0.000782	 0.042196
											CHANNELS 3 Zrotation Xrotation Yrotation
											End Site
											{
												OFFSET	 0.009002	-0.000782	 0.042196
											}
										}
									}
								}
							}
						}
					}
				}
			}
		}
	}
}
MOTION
Frames:    12
Frame Time: 0.03333334
-14.889690	-39.122770	 0.795371	-41.286080	 0.416765	 0.139886	 4.120881	-1.741005	 179.845800	 3.148374	-11.594570	 1.749879	 4.354856	 71.406410	 1.230548	-2.385833	 28.452760	 0.000004	-4.121233	-2.153045	-179.879800	-3.140193	-11.964010	-1.790653	-4.386740	 71.428390	-1.219508	 2.384659	 28.388700	-0.000001	-0.004766	 2.704447	 0.089748	-0.000882	-1.797858	-0.000072	-0.001057	-2.157428	-0.000089	-96.855680	 86.735770	-170.910800	 12.090980	 1.915943	-6.709803	-4.245846	-0.921620	-0.250977	-16.223950	-0.324226	-4.324854	-2.482367	 5.116409	 7.306710	-5.213516	-0.193813	 3.566525	-1.378229	 35.397820	-2.634230	-0.000002	-3.783157	-0.089647	-0.001364	 1.263086	 0.000015	 104.097500	 88.275240	 160.879200	-12.297030	 2.928372	 8.184141	 4.452768	-0.477582	 0.392396	 15.895390	-1.490674	 8.621498	 3.315085	 2.709412	-9.595269	 5.070815	-0.697434	-9.399699	-2.350882	 35.473990	 5.254307
-14.883090	-39.110140	 0.796893	-43.762330	 9.260986	 3.048315	 5.531678	-20.416460	 175.408100	-4.323850	-36.445400	-1.094016	-1.237020	 83.592070	-0.557230	-2.330685	 36.795350	-0.192835	-1.840722	-22.229810	-178.957600	-1.990308	-40.057000	-0.867342	-1.523844	 86.657420	 0.836522	 2.394332	 25.874200	-0.053530	 0.405108	 5.339944	-1.553248	 0.807396	 4.018341	-2.058295	 0.672957	 1.669461	 0.034729	-101.342300	 88.599050	-167.799900	 54.073000	 68.225650	-63.862150	-4.793534	-4.285347	-17.334620	 8.037675	-2.273681	-5.303128	-2.414903	-11.409580	 6.186030	-5.213516	-0.193813	 3.566525	-1.378229	 35.397820	-2.634230	 0.758055	 1.411590	 0.673780	 0.550839	 3.188338	 0.359561	 96.677590	 87.914470	 170.167500	-51.414690	 75.676170	 64.720570	-2.286619	-12.730610	 23.148130	-25.950540	-3.198488	 9.563935	-7.390299	-4.243081	-36.987130	 5.070815	-0.697434	-9.399699	-2.350882	 35.473990	 5.254307
-14.890320	-39.112530	 0.796182	-43.241100	 8.915153	 2.815048	 5.291358	-19.893370	 175.357400	-4.192608	-36.458160	-1.156644	-1.354843	 83.802830	-0.533880	-2.325286	 37.379180	-0.207475	-1.796669	-20.152570	-179.003400	-1.378744	-37.532000	-0.489781	-1.306989	 86.511600	 1.105890	 2.392310	 26.465350	-0.041091	 0.155302	 5.160822	-1.522243	 0.642885	 4.498114	-2.040038	 0.738402	 2.208700	 0.034638	-100.402900	 88.610270	-169.017100	 52.980610	 68.737850	-62.478660	-4.660398	-4.228248	-16.168380	 8.583578	-2.306520	-5.286337	-3.427431	-11.894080	 3.817969	-5.213516	-0.193813	 3.566525	-1.378229	 35.397820	-2.634230	 0.740547	 1.695180	 0.848921	 0.733454	 3.939722	 0.249984	 97.138440	 88.014460	 169.691900	-52.588390	 75.692840	 65.334110	-2.679108	-12.648430	 22.929870	-25.996580	-3.199558	 9.562119	-7.244464	-4.187462	-36.654950	 5.070815	-0.697434	-9.399699	-2.350882	 35.473990	 5.254307
-14.896890	-39.113240	 0.796279	-42.861400	 8.848319	 2.925198	 4.996458	-19.448430	 175.019800	-4.044063	-36.145150	-1.236793	-1.449540	 83.638290	-0.572076	-2.322179	 37.703480	-0.215699	-2.173977	-18.866490	-179.479500	-1.055969	-35.446960	-0.567816	-1.558398	 86.433010	 1.286347	 2.393504	 26.123130	-0.048303	 0.033351	 4.930050	-1.910765	 0.594242	 4.812431	-2.066816	 0.775648	 2.651574	 0.033390	-99.080730	 88.476590	-170.475500	 52.551210	 69.429950	-62.302250	-4.874914	-4.252731	-15.462010	 9.163813	-2.326365	-5.273626	-3.243633	-11.975820	 4.241302	-5.213516	-0.193813	 3.566525	-1.378229	 35.397820	-2.634230	 0.764797	 1.936148	 1.067349	 0.808982	 4.555391	 0.244172	 98.080890	 88.216770	 168.773300	-53.176280	 75.816480	 65.327560	-2.892511	-12.567450	 22.767830	-25.990390	-3.200064	 9.561821	-7.109831	-3.997252	-36.451280	 5.070815	-0.697434	-9.399699	-2.350882	 35.473990	 5.254307
-14.901940	-39.113360	 0.796797	-43.547550	 8.893476	 3.282892	 4.917988	-19.030130	 174.755200	-4.330916	-35.527640	-1.431950	-1.516096	 83.249280	-0.832703	-2.323063	 37.612030	-0.213375	-2.448041	-18.413560	-179.831300	-1.669911	-34.579240	-1.097074	-2.277871	 86.061650	 1.231532	 2.397742	 24.754620	-0.076849	 0.324171	 4.646828	-2.293638	 0.908421	 4.923156	-2.133801	 0.882405	 2.868399	 0.036315	-98.827650	 88.374780	-170.638200	 52.228520	 70.319220	-62.064870	-5.828309	-4.280928	-15.639970	 9.133904	-2.319432	-5.276036	-3.745853	-12.633160	 3.079507	-5.213516	-0.193813	 3.566525	-1.378229	 35.397820	-2.634230	 0.983678	 2.248380	 1.122271	 0.773550	 4.667557	 0.236371	 98.168860	 88.324500	 168.862500	-53.241810	 75.848170	 65.079830	-3.109919	-12.511550	 22.583900	-26.058400	-3.201725	 9.559102	-7.011045	-3.760627	-36.374000	 5.070815	-0.697434	-9.399699	-2.350882	 35.473990	 5.254307
-14.905150	-39.112970	 0.797578	-44.316760	 8.892048	 2.758727	 5.080554	-18.319590	 175.216700	-4.701806	-34.739410	-1.488300	-1.583182	 82.939670	-0.929140	-2.325136	 37.394920	-0.207876	-2.466261	-18.600490	-179.413100	-1.915658	-34.465750	-1.218013	-2.605071	 86.051270	 1.384372	 2.397038	 24.999510	-0.071777	 0.564870	 4.619500	-1.627896	 1.084305	 4.964708	-1.871855	 0.963793	 2.969540	 0.038816	-99.386340	 88.436520	-170.007900	 53.556910	 70.054020	-63.023730	-6.516410	-4.155200	-16.809600	 7.928555	-2.290002	-5.298626	-3.854727	-13.040950	 2.831378	-5.213516	-0.193813	 3.566525	-1.378229	 35.397820	-2.634230	 1.101765	 2.214257	 0.970573	 0.789544	 4.902774	-0.070907	 97.557420	 88.249340	 169.538800	-52.852900	 75.751380	 64.731070	-3.381449	-12.496630	 22.365640	-26.247840	-3.203429	 9.555599	-6.967170	-3.631468	-36.357730	 5.070815	-0.697434	-9.399699	-2.350882	 35.473990	 5.254307
-14.907600	-39.112350	 0.798649	-44.451840	 8.893485	 2.460444	 5.133959	-17.895720	 175.417900	-4.747485	-34.050880	-1.431111	-1.679480	 82.828380	-0.826711	-2.326743	 37.223650	-0.203559	-2.496140	-18.570980	-179.297400	-1.839826	-34.664230	-1.182018	-2.714519	 86.055830	 1.553689	 2.396108	 25.310920	-0.065294	 0.474883	 4.753693	-1.443021	 1.006659	 4.993972	-1.700242	 0.994532	 3.018131	 0.039633	-98.987630	 88.386140	-170.446000	 55.890700	 68.889370	-65.311130	-5.554099	-4.179582	-17.523250	 7.589628	-2.273784	-5.306597	-3.538020	-12.221430	 3.558680	-5.213516	-0.193813	 3.566525	-1.378229	 35.397820	-2.634230	 1.100619	 2.179781	 1.005562	 0.862051	 5.031133	-0.085973	 98.026160	 88.284000	 168.975100	-52.076580	 75.600580	 64.140250	-3.625034	-12.477080	 22.134070	-26.444250	-3.204633	 9.553188	-6.997432	-3.682093	-36.398090	 5.070815	-0.697434	-9.399699	-2.350882	 35.473990	 5.254307
-14.909650	-39.112290	 0.799620	-44.262620	 8.932564	 2.335836	 5.106882	-17.705450	 175.456800	-4.655318	-33.662550	-1.366494	-1.752696	 82.771510	-0.698395	-2.327599	 37.131130	-0.201239	-2.526976	-18.468830	-179.298100	-1.636386	-34.797240	-1.081393	-2.749535	 86.055180	 1.740049	 2.394922	 25.691980	-0.057346	 0.255651	 4.674603	-1.546026	 0.837671	 5.062973	-1.626416	 0.992522	 3.097587	 0.038866	-98.080720	 88.282060	-171.490000	 57.663800	 67.872080	-67.499950	-4.252523	-4.378810	-17.881830	 8.014304	-2.268028	-5.305162	-3.264030	-11.268420	 4.209403	-5.213516	-0.193813	 3.566525	-1.378229	 35.397820	-2.634230	 1.059040	 2.286626	 1.001809	 0.917628	 5.076653	 0.228518	 99.323570	 88.442920	 167.588200	-50.550580	 75.470770	 62.747020	-3.695188	-12.462910	 22.025650	-26.526930	-3.205538	 9.551805	-7.043250	-3.717384	-36.490380	 5.070815	-0.697434	-9.399699	-2.350882	 35.473990	 5.254307
-14.911160	-39.112240	 0.800375	-43.883960	 8.930381	 2.201799	 5.114122	-17.615880	 175.466100	-4.396578	-33.480600	-1.207773	-1.694765	 82.751560	-0.531867	-2.328305	 37.055360	-0.199334	-2.598075	-18.345280	-179.268000	-1.445219	-34.758090	-1.007334	-2.804762	 86.037010	 1.904721	 2.394686	 25.766010	-0.055791	-0.014232	 4.609075	-1.547385	 0.594674	 5.132723	-1.632719	 0.929837	 3.178518	 0.035754	-97.674340	 88.281940	-172.037900	 58.526090	 67.390890	-68.878500	-4.111102	-4.410643	-18.276370	 7.890212	-2.257693	-5.309764	-3.345936	-11.006390	 4.022804	-5.213516	-0.193813	 3.566525	-1.378229	 35.397820	-2.634230	 0.915178	 2.278974	 1.012054	 0.966907	 5.239204	 0.221711	 100.004600	 88.493380	 166.818900	-48.779650	 75.348080	 61.114190	-3.621552	-12.470550	 22.046610	-26.521170	-3.206325	 9.550126	-7.079975	-3.673513	-36.619170	 5.070815	-0.697434	-9.399699	-2.350882	 35.473990	 5.254307
-14.912310	-39.112250	 0.800976	-43.488770	 8.905870	 2.069531	 5.076899	-17.464650	 175.481900	-4.154199	-33.345520	-1.085245	-1.755390	 82.761930	-0.291737	-2.329021	 36.977790	-0.197384	-2.745114	-18.180460	-179.268400	-1.213773	-34.698590	-0.952171	-2.883485	 86.024230	 2.065999	 2.394744	 25.747100	-0.056188	-0.225690	 4.627856	-1.441843	 0.378265	 5.172735	-1.700433	 0.834817	 3.230253	 0.031721	-97.796580	 88.368180	-171.996100	 58.992690	 66.841440	-69.668450	-4.209386	-4.386858	-19.065940	 7.399506	-2.236391	-5.320099	-3.353753	-10.770310	 4.008821	-5.213516	-0.193813	 3.566525	-1.378229	 35.397820	-2.634230	 0.734208	 2.140982	 1.101993	 0.993508	 5.475467	-0.156351	 99.606410	 88.399900	 167.126900	-46.849750	 75.209240	 59.365230	-3.389296	-12.486950	 22.194650	-26.402580	-3.206098	 9.550778	-7.121591	-3.587526	-36.793060	 5.070815	-0.697434	-9.399699	-2.350882	 35.473990	 5.254307
-14.913220	-39.112320	 0.801305	-43.159800	 8.934076	 2.063197	 5.007507	-17.332920	 175.457700	-3.955335	-33.170570	-1.003720	-1.811523	 82.803250	-0.126287	-2.330208	 36.847920	-0.194141	-2.811126	-18.001940	-179.319900	-1.012283	-34.629730	-0.875965	-2.949866	 86.021130	 2.246692	 2.394682	 25.765520	-0.055801	-0.343828	 4.579614	-1.424459	 0.241687	 5.153949	-1.796257	 0.736800	 3.223798	 0.028040	-98.211580	 88.478520	-171.610200	 59.049190	 66.064610	-70.135990	-3.901448	-4.566717	-20.506430	 7.215087	-2.203189	-5.331914	-3.322425	-10.600010	 4.086067	-5.213516	-0.193813	 3.566525	-1.378229	 35.397820	-2.634230	 0.595319	 2.122720	 1.036628	 0.949408	 5.484847	-0.284685	 99.062370	 88.301770	 167.632200	-44.964520	 75.045810	 57.738380	-2.886134	-12.469120	 22.506840	-26.048020	-3.205037	 9.554409	-7.164212	-3.507803	-36.965270	 5.070815	-0.697434	-9.399699	-2.350882	 35.473990	 5.254307
-14.913340	-39.112240	 0.801546	-42.955590	 8.958966	 2.041718	 5.039742	-17.338200	 175.455100	-3.839099	-33.051550	-0.916957	-1.880774	 82.866520	 0.067523	-2.330578	 36.807310	-0.193132	-2.808112	-18.009830	-179.275500	-0.889785	-34.572540	-0.802433	-3.022541	 86.025510	 2.430794	 2.394398	 25.852800	-0.053975	-0.389070	 4.551696	-1.346740	 0.164570	 5.128417	-1.845039	 0.653444	 3.218335	 0.024899	-98.605760	 88.548820	-171.206900	 58.529660	 65.540240	-70.131350	-4.030062	-4.689541	-21.934710	 6.917079	-2.173723	-5.342402	-3.759399	-11.023540	 3.051868	-5.213516	-0.193813	 3.566525	-1.378229	 35.397820	-2.634230	 0.490848	 2.084873	 0.953176	 0.891747	 5.516824	-0.389779	 98.560580	 88.216770	 168.126500	-43.703010	 74.849530	 56.821040	-2.365061	-12.469300	 22.906030	-25.652600	-3.203042	 9.558655	-7.192310	-3.500071	-37.044380	 5.070815	-0.697434	-9.399699	-2.350882	 35.473990	 5.254307
